# File created by Blade
# Date/Time:  Tue Apr 07 21:36:59 2015
# Frame Rate: 120.000 fps
#------------------------------------------------------
:FULLY-SPECIFIED
:DEGREES
685
root -5.128369 32.368130 12.219674 393.111568 -93.671378 -374.207025
Spine -5.381020 -3.658925 -0.628368
Head -0.257604 1.421919 -7.703392
LeftShoulder -23.796950 43.020221 14.344028
LeftArm 57.463050 -48.034179 -77.915488
LeftForeArm -0.880418 -0.000000 9.278160
LeftHand 15.739244 -0.000000 19.735636
LeftHandThumb1 -26.253704 0.000000 33.147579
RightShoulder -4.973996 2.369651 -27.835281
RightArm 12.475676 14.215533 56.076004
RightForeArm -6.226898 0.000000 14.245523
RightHand 13.156075 -0.000000 -14.143226
RightHandThumb1 -24.326973 -0.000000 -32.862282
LeftUpLeg -34.771699 -11.433104 4.292192
LeftLeg 25.166515 -0.000000 -0.000000
LeftFoot -12.743636 6.453402 -17.950534
LeftToeBase -11.979698 -0.000000 0.000000
RightUpLeg -31.142690 5.281903 -1.590205
RightLeg 35.830355 -0.000000 -0.000000
RightFoot -18.109237 -6.946326 11.075571
RightToeBase -13.266946 -0.000000 0.000000
686
root -5.115992 32.380932 12.175366 393.497480 -93.655931 -374.788945
Spine -5.275506 -3.668827 -0.661910
Head -0.340102 1.634282 -7.916839
LeftShoulder -23.755338 43.071772 14.293224
LeftArm 57.298514 -47.918418 -78.224679
LeftForeArm -0.979833 -0.000000 9.211719
LeftHand 15.645889 -0.000000 19.827584
LeftHandThumb1 -26.253704 0.000000 33.147579
RightShoulder -4.932083 2.602375 -27.810197
RightArm 12.638612 13.969675 56.526493
RightForeArm -6.306510 -0.000000 14.329398
RightHand 13.009066 0.000000 -13.710287
RightHandThumb1 -24.326973 -0.000000 -32.862282
LeftUpLeg -34.513744 -11.580385 4.376923
LeftLeg 24.946920 -0.000000 -0.000000
LeftFoot -12.552328 6.529316 -17.985951
LeftToeBase -11.923454 -0.000000 0.000000
RightUpLeg -30.752541 5.374942 -1.606173
RightLeg 35.404784 -0.000000 -0.000000
RightFoot -18.041230 -6.809082 10.999569
RightToeBase -13.495312 -0.000000 0.000000
687
root -5.104986 32.394370 12.129783 394.237685 -93.630218 -375.714231
Spine -5.194203 -3.717217 -0.712624
Head -0.364962 1.895078 -8.075209
LeftShoulder -23.765214 43.073837 14.245043
LeftArm 57.070626 -47.785919 -78.521415
LeftForeArm -1.041739 -0.000000 9.170795
LeftHand 15.645470 -0.000000 19.770860
LeftHandThumb1 -26.253704 0.000000 33.147579
RightShoulder -4.863592 2.909129 -27.776085
RightArm 12.787940 13.712165 56.980667
RightForeArm -6.543368 -0.000000 14.362091
RightHand 12.809722 0.000000 -13.401123
RightHandThumb1 -24.326973 -0.000000 -32.862282
LeftUpLeg -34.278934 -11.797343 4.476554
LeftLeg 24.728967 -0.000000 -0.000000
LeftFoot -12.366470 6.705083 -18.074058
LeftToeBase -12.167608 -0.000000 0.000000
RightUpLeg -30.366797 5.415180 -1.602379
RightLeg 34.983840 -0.000000 -0.000000
RightFoot -17.980933 -6.673890 10.931300
RightToeBase -13.678272 -0.000000 0.000000
688
root -5.092424 32.407783 12.087537 394.847779 -93.646472 -376.469205
Spine -5.162367 -3.690816 -0.763586
Head -0.391706 2.127911 -8.267816
LeftShoulder -23.841796 43.207270 14.108728
LeftArm 57.085650 -47.659929 -79.036592
LeftForeArm -1.125262 -0.000000 9.161589
LeftHand 15.600906 0.000000 19.815909
LeftHandThumb1 -26.253704 0.000000 33.147579
RightShoulder -4.795965 3.161672 -27.731503
RightArm 12.977270 13.248217 57.353316
RightForeArm -6.618547 -0.000000 14.356726
RightHand 12.703695 -0.000000 -13.256644
RightHandThumb1 -24.326973 -0.000000 -32.862282
LeftUpLeg -34.093400 -12.017309 4.575545
LeftLeg 24.535302 -0.000000 -0.000000
LeftFoot -12.195686 6.879090 -18.137161
LeftToeBase -12.182024 -0.000000 0.000000
RightUpLeg -30.033510 5.437244 -1.588348
RightLeg 34.575565 -0.000000 -0.000000
RightFoot -17.928758 -6.606856 10.889296
RightToeBase -13.909776 -0.000000 0.000000
